<svg width="32" height="32" viewBox="0 0 32 32" fill="none" xmlns="http://www.w3.org/2000/svg">
<g id="account_balance_black_24dp (1) 1" clip-path="url(#clip0_646_4898)">
<path id="Vector" d="M5.33268 15.3334V20.6668C5.33268 21.7734 6.22602 22.6668 7.33268 22.6668C8.43935 22.6668 9.33268 21.7734 9.33268 20.6668V15.3334C9.33268 14.2268 8.43935 13.3334 7.33268 13.3334C6.22602 13.3334 5.33268 14.2268 5.33268 15.3334ZM13.3327 15.3334V20.6668C13.3327 21.7734 14.226 22.6668 15.3327 22.6668C16.4393 22.6668 17.3327 21.7734 17.3327 20.6668V15.3334C17.3327 14.2268 16.4393 13.3334 15.3327 13.3334C14.226 13.3334 13.3327 14.2268 13.3327 15.3334ZM4.66602 29.3334H25.9993C27.106 29.3334 27.9993 28.4401 27.9993 27.3334C27.9993 26.2268 27.106 25.3334 25.9993 25.3334H4.66602C3.55935 25.3334 2.66602 26.2268 2.66602 27.3334C2.66602 28.4401 3.55935 29.3334 4.66602 29.3334ZM21.3327 15.3334V20.6668C21.3327 21.7734 22.226 22.6668 23.3327 22.6668C24.4394 22.6668 25.3327 21.7734 25.3327 20.6668V15.3334C25.3327 14.2268 24.4394 13.3334 23.3327 13.3334C22.226 13.3334 21.3327 14.2268 21.3327 15.3334ZM14.0927 1.98676L3.55935 7.53342C3.01268 7.81342 2.66602 8.38676 2.66602 9.00009C2.66602 9.92009 3.41268 10.6668 4.33268 10.6668H26.346C27.2527 10.6668 27.9993 9.92009 27.9993 9.00009C27.9993 8.38676 27.6527 7.81342 27.106 7.53342L16.5727 1.98676C15.7993 1.57342 14.866 1.57342 14.0927 1.98676Z" fill="#1F1F1F"/>
</g>
<defs>
<clipPath id="clip0_646_4898">
<rect width="32" height="32" fill="white"/>
</clipPath>
</defs>
</svg>
