<svg width="36" height="36" viewBox="0 0 36 36" fill="none" xmlns="http://www.w3.org/2000/svg">
<g id="clarity:employee-group-solid">
<g id="clarityEmployeeGroupSolid0">
<path id="Vector" d="M18.0002 15.9801C20.6291 15.9801 22.7602 13.8758 22.7602 11.2801C22.7602 8.68434 20.6291 6.58008 18.0002 6.58008C15.3714 6.58008 13.2402 8.68434 13.2402 11.2801C13.2402 13.8758 15.3714 15.9801 18.0002 15.9801Z" fill="#1F1F1F"/>
<path id="Vector_2" d="M10.78 11.75H11.26V11.32C11.2629 10.0696 11.6157 8.84492 12.2784 7.78458C12.9411 6.72424 13.8873 5.87051 15.01 5.31996C14.6777 4.55452 14.1442 3.89339 13.4663 3.40679C12.7883 2.9202 11.9913 2.6263 11.1597 2.55632C10.3282 2.48633 9.4932 2.64288 8.74349 3.00933C7.99377 3.37577 7.3573 3.93844 6.90168 4.63756C6.44606 5.33669 6.1883 6.14616 6.15578 6.98001C6.12326 7.81386 6.3172 8.64095 6.71699 9.37343C7.11678 10.1059 7.7075 10.7164 8.4264 11.1402C9.14531 11.5639 9.96555 11.785 10.8 11.78L10.78 11.75ZM24.76 11.28V11.71H25.24C26.0634 11.7017 26.8693 11.4716 27.5729 11.0439C28.2765 10.6163 28.8518 10.0068 29.2383 9.27976C29.6247 8.55269 29.808 7.73488 29.7689 6.91241C29.7297 6.08995 29.4696 5.29325 29.0158 4.60617C28.562 3.91909 27.9314 3.36705 27.1904 3.00816C26.4493 2.64926 25.6252 2.49678 24.8048 2.56676C23.9844 2.63675 23.198 2.92661 22.5284 3.40584C21.8588 3.88508 21.3309 4.53595 21 5.28996C22.123 5.83835 23.0703 6.68992 23.7347 7.74843C24.3992 8.80695 24.7543 10.0302 24.76 11.28ZM22.29 16.45C24.2783 16.8435 26.2007 17.5169 28 18.45C28.2535 18.5892 28.4831 18.7681 28.68 18.98H34V15.56C34.001 15.4288 33.9661 15.2998 33.8991 15.187C33.8322 15.0743 33.7356 14.9819 33.62 14.92C31.0282 13.5643 28.145 12.8606 25.22 12.87H24.56C24.2135 14.2787 23.4164 15.5357 22.29 16.45ZM6.53002 20.92C6.52819 20.4163 6.6642 19.9218 6.92332 19.4899C7.18244 19.0581 7.55478 18.7053 8.00002 18.47C9.7993 17.5369 11.7218 16.8635 13.71 16.47C12.5891 15.5635 11.7925 14.3178 11.44 12.92H10.78C7.85505 12.9106 4.97187 13.6143 2.38002 14.97C2.26439 15.0319 2.16788 15.1243 2.1009 15.237C2.03393 15.3498 1.99905 15.4788 2.00002 15.61V22H6.53002V20.92ZM21.46 26.69H27.42V28.09H21.46V26.69Z" fill="#1F1F1F"/>
<path id="Vector_3" d="M32.8093 21.2599H25.9393V20.2599C25.9393 19.9947 25.834 19.7404 25.6464 19.5528C25.4589 19.3653 25.2045 19.2599 24.9393 19.2599C24.6741 19.2599 24.4197 19.3653 24.2322 19.5528C24.0447 19.7404 23.9393 19.9947 23.9393 20.2599V21.2599H21.9993V18.4299C20.6836 18.1536 19.3436 18.0096 17.9993 17.9999C14.8431 17.9868 11.7319 18.7491 8.93932 20.2199C8.81493 20.2845 8.7108 20.3821 8.63845 20.5021C8.56609 20.6221 8.52832 20.7598 8.52932 20.8999V26.5099H15.6393V32.5999C15.6393 32.8651 15.7447 33.1195 15.9322 33.307C16.1197 33.4946 16.3741 33.5999 16.6393 33.5999H32.8093C33.0745 33.5999 33.3289 33.4946 33.5164 33.307C33.704 33.1195 33.8093 32.8651 33.8093 32.5999V22.2599C33.8093 21.9947 33.704 21.7404 33.5164 21.5528C33.3289 21.3653 33.0745 21.2599 32.8093 21.2599ZM31.8093 31.6199H17.6393V23.2599H23.9393V24.1699C23.9393 24.4351 24.0447 24.6895 24.2322 24.877C24.4197 25.0646 24.6741 25.1699 24.9393 25.1699C25.2045 25.1699 25.4589 25.0646 25.6464 24.877C25.834 24.6895 25.9393 24.4351 25.9393 24.1699V23.2599H31.8093V31.6199Z" fill="#1F1F1F"/>
</g>
</g>
</svg>
