<svg width="32" height="32" viewBox="0 0 32 32" fill="none" xmlns="http://www.w3.org/2000/svg">
<g id="favorite_border_black_24dp (1) 1" clip-path="url(#clip0_646_4894)">
<path id="Vector" d="M26.2143 5.3199C22.6943 2.9199 18.3476 4.0399 16.0009 6.78656C13.6543 4.0399 9.3076 2.90656 5.7876 5.3199C3.92094 6.5999 2.7476 8.75989 2.6676 11.0399C2.48094 16.2132 7.0676 20.3599 14.0676 26.7199L14.2009 26.8399C15.2143 27.7599 16.7743 27.7599 17.7876 26.8266L17.9343 26.6932C24.9343 20.3466 29.5076 16.1999 29.3343 11.0266C29.2543 8.7599 28.0809 6.5999 26.2143 5.3199ZM16.1343 24.7332L16.0009 24.8666L15.8676 24.7332C9.52093 18.9866 5.33427 15.1866 5.33427 11.3332C5.33427 8.66656 7.33427 6.66656 10.0009 6.66656C12.0543 6.66656 14.0543 7.98656 14.7609 9.81323H17.2543C17.9476 7.98656 19.9476 6.66656 22.0009 6.66656C24.6676 6.66656 26.6676 8.66656 26.6676 11.3332C26.6676 15.1866 22.4809 18.9866 16.1343 24.7332Z" fill="#1F1F1F"/>
</g>
<defs>
<clipPath id="clip0_646_4894">
<rect width="32" height="32" fill="white"/>
</clipPath>
</defs>
</svg>
