<?xml version="1.0" standalone="no"?>
<!DOCTYPE svg PUBLIC "-//W3C//DTD SVG 20010904//EN"
 "http://www.w3.org/TR/2001/REC-SVG-20010904/DTD/svg10.dtd">
<svg version="1.0" xmlns="http://www.w3.org/2000/svg"
 width="36.000000pt" height="36.000000pt" viewBox="0 0 36.000000 36.000000"
 preserveAspectRatio="xMidYMid meet">

<g transform="translate(0.000000,36.000000) scale(0.100000,-0.100000)"
fill="#000000" stroke="none">
<path d="M144 324 c-5 -19 -1 -31 15 -47 l21 -21 21 21 c32 31 19 73 -21 73
-24 0 -31 -5 -36 -26z"/>
<path d="M14 236 c-3 -8 -4 -25 -2 -38 3 -26 40 -37 62 -19 20 17 47 -10 49
-49 2 -31 -1 -36 -30 -45 -29 -8 -33 -14 -33 -42 0 -28 4 -33 24 -33 28 0 48
21 46 47 -4 39 0 43 44 43 40 0 74 -19 60 -33 -4 -3 -4 -18 0 -32 5 -20 13
-25 36 -25 23 0 31 5 36 25 8 31 -10 55 -41 55 -26 0 -36 18 -28 52 8 32 33
51 49 37 7 -6 23 -9 36 -7 19 2 23 9 23 38 0 31 -3 35 -27 38 -22 3 -30 -2
-40 -22 -14 -31 -31 -33 -69 -5 l-29 20 -29 -20 c-38 -27 -55 -26 -69 4 -13
28 -59 35 -68 11z"/>
</g>
</svg>
