<svg width="16" height="15" viewBox="0 0 16 15" fill="none" xmlns="http://www.w3.org/2000/svg">
<g id="icon / 24 / notification" clip-path="url(#clip0_646_4820)">
<path id="Vector" d="M7.89761 12.6727C6.46375 12.6727 5.0299 12.4534 3.6699 12.0149C3.15298 11.843 2.75913 11.4934 2.58682 11.0371C2.40836 10.5808 2.4699 10.0771 2.75298 9.62673L3.46067 8.49487C3.60836 8.25784 3.74375 7.78376 3.74375 7.50525V5.79266C3.74375 3.58822 5.60836 1.79266 7.89761 1.79266C10.1868 1.79266 12.0515 3.58822 12.0515 5.79266V7.50525C12.0515 7.77784 12.1868 8.25784 12.3345 8.5008L13.0361 9.62673C13.3007 10.0534 13.3499 10.5689 13.1715 11.0371C12.993 11.5052 12.6053 11.8608 12.1192 12.0149C10.7653 12.4534 9.33146 12.6727 7.89761 12.6727ZM7.89761 2.68155C6.11913 2.68155 4.66682 4.07415 4.66682 5.79266V7.50525C4.66682 7.93784 4.48221 8.57784 4.25452 8.95117L3.54682 10.083C3.41144 10.3023 3.37452 10.5334 3.45452 10.7289C3.52836 10.9304 3.71298 11.0845 3.96529 11.1675C6.53759 11.9971 9.26377 11.9971 11.8361 11.1675C12.0576 11.0964 12.2299 10.9364 12.3099 10.723C12.3899 10.5097 12.3715 10.2786 12.2484 10.083L11.5407 8.95117C11.3068 8.56599 11.1284 7.93191 11.1284 7.49932V5.79266C11.1284 4.07415 9.68223 2.68155 7.89761 2.68155Z" fill="white"/>
<path id="Vector_2" d="M9.04219 2.84143C8.99911 2.84143 8.95604 2.8355 8.91296 2.82365C8.7345 2.77624 8.56219 2.74069 8.39604 2.71698C7.87296 2.6518 7.36834 2.68735 6.8945 2.82365C6.72219 2.87698 6.53759 2.82365 6.42067 2.6992C6.30375 2.57476 6.26682 2.39698 6.33452 2.23698C6.58682 1.61476 7.20219 1.20587 7.90373 1.20587C8.60527 1.20587 9.22065 1.60883 9.47296 2.23698C9.5345 2.39698 9.50373 2.57476 9.38681 2.6992C9.2945 2.79402 9.16527 2.84143 9.04219 2.84143Z" fill="white"/>
<path id="Vector_3" d="M7.89752 14.0236C7.28829 14.0236 6.69752 13.7865 6.26677 13.3717C5.836 12.9569 5.58984 12.388 5.58984 11.8013H6.51292C6.51292 12.151 6.66059 12.4947 6.91906 12.7436C7.17752 12.9924 7.53444 13.1347 7.89752 13.1347C8.66059 13.1347 9.28213 12.5361 9.28213 11.8013H10.2052C10.2052 13.028 9.17136 14.0236 7.89752 14.0236Z" fill="white"/>
</g>
<defs>
<clipPath id="clip0_646_4820">
<rect width="14.7692" height="14.2222" fill="white" transform="translate(0.5 0.506775)"/>
</clipPath>
</defs>
</svg>
