<svg width="40" height="40" viewBox="0 0 40 40" fill="none" xmlns="http://www.w3.org/2000/svg">
<g id="phone_iphone_black_24dp (1) 1">
<path id="Vector" d="M25.834 1.66675H12.5007C10.2007 1.66675 8.33398 3.53341 8.33398 5.83342V34.1667C8.33398 36.4668 10.2007 38.3334 12.5007 38.3334H25.834C28.134 38.3334 30.0007 36.4668 30.0007 34.1667V5.83342C30.0007 3.53341 28.134 1.66675 25.834 1.66675ZM19.1673 36.6667C17.784 36.6667 16.6673 35.5501 16.6673 34.1667C16.6673 32.7834 17.784 31.6667 19.1673 31.6667C20.5507 31.6667 21.6673 32.7834 21.6673 34.1667C21.6673 35.5501 20.5507 36.6667 19.1673 36.6667ZM26.6673 30.0001H11.6673V6.66675H26.6673V30.0001Z" fill="#1F1F1F"/>
</g>
</svg>
